. 
  
http://www.torrenting.com/        :     Greatest Movie Tracker on The Net!!!
 
http://www.Torrenting.com          :     Once & For all ;)


               www . Torrenting . Com 

(((((((((((((= Enjoy No RAR releases =))))))))))))))))))))


...................................NFO:....................................

.[img]http://img707.imageshack.us/img707/5428/53330144811858904952143.jpg[/img]


[color=blue][size=5][b]Space.Battleship.Yamato.2010.BDRip.JAP.EN-HCSubs.XVID.AC3.HQ.Hive-CM8[/b][/size][/color]


[b]Thx Hive


CM8 Doing It Right The First Time :D


JAPANESE AUDIO + ENGLISH HARDCODED SUBS!!

Top New Japanese Scifi-Movie, found English subs for it and hardcoded them within.
Budget:$12,000,000 (estimated)


Video: 720x304 @bitrate 1800 2pass
Audio: Japanese DTS to AC3 5.1 @384
Sample: yes included
Subs: yes english hardcoded[/b]


[url]http://www.imdb.com/title/tt1477109/[/url]


General
Complete name                    : Space.Battleship.Yamato.2010.BDRip.JAP.EN-HCSubs.XVID.AC3.HQ.Hive-CM8.avi
Format                           : AVI
Format/Info                      : Audio Video Interleave
Format profile                   : OpenDML
Format settings                  : rec
File size                        : 2.12 GiB
Duration                         : 2h 18mn
Overall bit rate                 : 2 190 Kbps
Writing application              : AVI-Mux GUI 1.17.7, Aug  8 2006  20:59:17

Video
ID                               : 0
Format                           : MPEG-4 Visual
Format profile                   : Advanced Simple@L5
Format settings, BVOP            : 1
Format settings, QPel            : Yes
Format settings, GMC             : No warppoints
Format settings, Matrix          : Default (H.263)
Muxing mode                      : Packed bitstream
Codec ID                         : XVID
Codec ID/Hint                    : XviD
Duration                         : 2h 18mn
Bit rate                         : 1 801 Kbps
Width                            : 720 pixels
Height                           : 304 pixels
Display aspect ratio             : 2.40:1
Frame rate                       : 23.976 fps
Color space                      : YUV
Chroma subsampling               : 4:2:0
Bit depth                        : 8 bits
Scan type                        : Progressive
Compression mode                 : Lossy
Bits/(Pixel*Frame)               : 0.343
Stream size                      : 1.74 GiB (82%)
Writing library                  : XviD 1.2.1 (UTC 2008-12-04)

Audio
ID                               : 1
Format                           : AC-3
Format/Info                      : Audio Coding 3
Mode extension                   : CM (complete main)
Codec ID                         : 2000
Duration                         : 2h 18mn
Bit rate mode                    : Constant
Bit rate                         : 384 Kbps
Channel(s)                       : 6 channels
Channel positions                : Front: L C R, Side: L R, LFE
Sampling rate                    : 48.0 KHz
Bit depth                        : 16 bits
Compression mode                 : Lossy
Stream size                      : 381 MiB (18%)
Alignment                        : Aligned on interleaves
Interleave, duration             : 64 ms (1.53 video frames)
Interleave, preload duration     : 192 ms


Takuya Kimura    ...    Susumu Kodai
Meisa Kuroki     ...    Yuki Mori
Toshir Yanagiba ...    Shiro Sanada
Naoto Ogata      ...    Daisuke Shima
Hiroyuki Ikeuchi ...    Hajime Saito


The crew of the space battleship Yamato set out on a journey to the
planet Iscandar to acquire a device that can heal the ravaged Earth.  


[img]http://img148.imageshack.us/img148/7208/yayyayayayayaaya.png[/img]
[img]http://img811.imageshack.us/img811/8019/58432202.png[/img]
[img]http://img6.imageshack.us/img6/3811/yayaqj.png[/img]
[img]http://img269.imageshack.us/img269/9206/yayaya.png[/img]
[img]http://img841.imageshack.us/img841/1193/yayyaaya.png[/img]
[img]http://img151.imageshack.us/img151/2015/yayyayaaya.png[/img]
[img]http://img196.imageshack.us/img196/9926/yayyayayaaya.png[/img]
[img]http://img233.imageshack.us/img233/6912/yayyayayayaaya.png[/img]



Greetz

ViSiON,SANTi,MAGNET,THC,T0XiC,LKRG,IMAGiNE,WBZ,FLAWL3SS,NOVA
D2U,Vik,Rapeseed,SAFC,goldadvance,MEMORY100,KaN1vE,Unevano,
Pinnz,Wayne,Mr Hive and all P2P groups 
Great Work Guys :D

FYS

CM8@hushmail.com